ffmpeg started on 2026-03-29 at 16:29:15
Report written to "D:\Convert\FFMetrics\reports\psnr_report-6.txt"
Log level: 32
Command line:
ffmpeg -hide_banner -nostdin -r 24000/1001 -i "F:\\\xc0\xed\xe8\xec\xe5\\LightFamily\\\xce\xe4\xed\xe0\xe6\xe4\xfb \xff \xf1\xf2\xe0\xeb\xe0 \xef\xf0\xe8\xed\xf6\xe5\xf1\xf1\xee\xe9\\LightFamilyDUB_\xce\xe4\xed\xe0\xe6\xe4\xfb_\xff_\xf1\xf2\xe0\xeb\xe0_\xef\xf0\xe8\xed\xf6\xe5\xf1\xf1\xee\xe9_01_\xf1\xe5\xf0\xe8\xff_HEVC.mkv" -r 24000/1001 -i "F:\\\xc0\xed\xe8\xec\xe5\\LightFamily\\\xce\xe4\xed\xe0\xe6\xe4\xfb \xff \xf1\xf2\xe0\xeb\xe0 \xef\xf0\xe8\xed\xf6\xe5\xf1\xf1\xee\xe9\\LightFamilyDUB_\xce\xe4\xed\xe0\xe6\xe4\xfb_\xff_\xf1\xf2\xe0\xeb\xe0_\xef\xf0\xe8\xed\xf6\xe5\xf1\xf1\xee\xe9_01_\xf1\xe5\xf0\xe8\xff.mp4" -lavfi "[0:v]settb=AVTB,setpts=PTS-STARTPTS,format=pix_fmts=yuv420p10le,fps=24000/1001,scale=1920:1080:flags=lanczos:param0=3:out_range=limited:out_chroma_loc=left,setsar=1/1,setdar=(1920/1080)*(1/1)[main];[1:v]settb=AVTB,setpts=PTS-STARTPTS,format=pix_fmts=yuv420p,fps=24000/1001,scale=1920:1080:flags=lanczos:param0=3:out_range=limited:out_chroma_loc=left,setsar=1/1,setdar=(1920/1080)*(1/1)[ref];[main][ref]psnr=eof_action=endall:stats_file='D\\:/Convert/FFMetrics/logs/psnr_logfile-6.txt'" -f null -
Input #0, matroska,webm, from 'F:\Аниме\LightFamily\Однажды я стала принцессой\LightFamilyDUB_Однажды_я_стала_принцессой_01_серия_HEVC.mkv':
  Metadata:
    COMPATIBLE_BRANDS: mp42mp41
    MAJOR_BRAND     : mp42
    MINOR_VERSION   : 0
    ENCODER         : Lavf61.7.100
  Duration: 00:21:19.19, start: -0.021000, bitrate: 1985 kb/s
  Stream #0:0(eng): Video: hevc (Main 10), yuv420p10le(tv, progressive), 1920x1080 [SAR 1:1 DAR 16:9], 23.98 fps, 23.98 tbr, 1k tbn (default)
      Metadata:
        HANDLER_NAME    : Mainconcept Video Media Handler
        VENDOR_ID       : [0][0][0][0]
        ENCODER         : Lavc61.19.100 libx265
        BPS             : 1785493
        DURATION        : 00:21:19.152708333
        NUMBER_OF_FRAMES: 30669
        NUMBER_OF_BYTES : 285489749
        _STATISTICS_WRITING_APP: mkvpropedit v94.0 ('Initiate') 64-bit
        _STATISTICS_WRITING_DATE_UTC: 2026-03-28 15:14:16
        _STATISTICS_TAGS: BPS DURATION NUMBER_OF_FRAMES NUMBER_OF_BYTES
  Stream #0:1(eng): Audio: aac (LC), 48000 Hz, stereo, fltp (default)
      Metadata:
        HANDLER_NAME    : #Mainconcept MP4 Sound Media Handler
        VENDOR_ID       : [0][0][0][0]
        ENCODER         : Lavc61.19.100 aac
        BPS             : 195577
        DURATION        : 00:21:19.168000000
        NUMBER_OF_FRAMES: 59962
        NUMBER_OF_BYTES : 31272105
        _STATISTICS_WRITING_APP: mkvpropedit v94.0 ('Initiate') 64-bit
        _STATISTICS_WRITING_DATE_UTC: 2026-03-28 15:14:16
        _STATISTICS_TAGS: BPS DURATION NUMBER_OF_FRAMES NUMBER_OF_BYTES
Input #1, mov,mp4,m4a,3gp,3g2,mj2, from 'F:\Аниме\LightFamily\Однажды я стала принцессой\LightFamilyDUB_Однажды_я_стала_принцессой_01_серия.mp4':
  Metadata:
    major_brand     : mp42
    minor_version   : 0
    compatible_brands: mp42mp41
    creation_time   : 2025-10-01T22:35:53.000000Z
  Duration: 00:21:19.15, start: 0.000000, bitrate: 8751 kb/s
  Stream #1:0[0x1](eng): Video: h264 (Main) (avc1 / 0x31637661), yuv420p(progressive), 1920x1080 [SAR 1:1 DAR 16:9], 8367 kb/s, 23.98 fps, 23.98 tbr, 24k tbn (default)
      Metadata:
        creation_time   : 2025-10-01T22:35:53.000000Z
        handler_name    : Mainconcept Video Media Handler
        vendor_id       : [0][0][0][0]
        encoder         : AVC Coding
  Stream #1:1[0x2](eng): Audio: aac (LC) (mp4a / 0x6134706D), 48000 Hz, stereo, fltp, 381 kb/s (default)
      Metadata:
        creation_time   : 2025-10-01T22:35:53.000000Z
        handler_name    : #Mainconcept MP4 Sound Media Handler
        vendor_id       : [0][0][0][0]
Stream mapping:
  Stream #0:0 (hevc) -> settb:default
  Stream #1:0 (h264) -> settb:default
  psnr:default -> Stream #0:0 (wrapped_avframe)
  Stream #0:1 -> #0:1 (aac (native) -> pcm_s16le (native))
Output #0, null, to 'pipe:':
  Metadata:
    COMPATIBLE_BRANDS: mp42mp41
    MAJOR_BRAND     : mp42
    MINOR_VERSION   : 0
    encoder         : Lavf61.7.100
  Stream #0:0: Video: wrapped_avframe, yuv420p10le(tv, progressive), 1920x1080 [SAR 1:1 DAR 16:9], q=2-31, 200 kb/s, 23.98 fps, 23.98 tbn
      Metadata:
        encoder         : Lavc61.19.100 wrapped_avframe
  Stream #0:1(eng): Audio: pcm_s16le, 48000 Hz, stereo, s16, 1536 kb/s (default)
      Metadata:
        HANDLER_NAME    : #Mainconcept MP4 Sound Media Handler
        VENDOR_ID       : [0][0][0][0]
        _STATISTICS_TAGS: BPS DURATION NUMBER_OF_FRAMES NUMBER_OF_BYTES
        BPS             : 195577
        DURATION        : 00:21:19.168000000
        NUMBER_OF_FRAMES: 59962
        NUMBER_OF_BYTES : 31272105
        _STATISTICS_WRITING_APP: mkvpropedit v94.0 ('Initiate') 64-bit
        _STATISTICS_WRITING_DATE_UTC: 2026-03-28 15:14:16
        encoder         : Lavc61.19.100 pcm_s16le
frame=  119 fps=0.0 q=-0.0 size=N/A time=00:00:04.96 bitrate=N/A speed=9.57x    frame=  316 fps=308 q=-0.0 size=N/A time=00:00:13.17 bitrate=N/A speed=12.8x    frame=  476 fps=309 q=-0.0 size=N/A time=00:00:19.85 bitrate=N/A speed=12.9x    frame=  634 fps=309 q=-0.0 size=N/A time=00:00:26.44 bitrate=N/A speed=12.9x    frame=  793 fps=307 q=-0.0 size=N/A time=00:00:33.07 bitrate=N/A speed=12.8x    frame=  954 fps=309 q=-0.0 size=N/A time=00:00:39.78 bitrate=N/A speed=12.9x    frame= 1122 fps=312 q=-0.0 size=N/A time=00:00:46.79 bitrate=N/A speed=  13x    frame= 1288 fps=313 q=-0.0 size=N/A time=00:00:53.72 bitrate=N/A speed=13.1x    frame= 1472 fps=317 q=-0.0 size=N/A time=00:01:01.39 bitrate=N/A speed=13.2x    frame= 1631 fps=316 q=-0.0 size=N/A time=00:01:08.02 bitrate=N/A speed=13.2x    frame= 1775 fps=313 q=-0.0 size=N/A time=00:01:14.03 bitrate=N/A speed=13.1x    frame= 1930 fps=312 q=-0.0 size=N/A time=00:01:20.49 bitrate=N/A speed=  13x    frame= 2095 fps=313 q=-0.0 size=N/A time=00:01:27.37 bitrate=N/A speed=13.1x    frame= 2266 fps=314 q=-0.0 size=N/A time=00:01:34.51 bitrate=N/A speed=13.1x    frame= 2422 fps=313 q=-0.0 size=N/A time=00:01:41.01 bitrate=N/A speed=13.1x    frame= 2555 fps=310 q=-0.0 size=N/A time=00:01:46.56 bitrate=N/A speed=12.9x    frame= 2755 fps=314 q=-0.0 size=N/A time=00:01:54.90 bitrate=N/A speed=13.1x    frame= 2965 fps=320 q=-0.0 size=N/A time=00:02:03.66 bitrate=N/A speed=13.3x    frame= 3181 fps=325 q=-0.0 size=N/A time=00:02:12.67 bitrate=N/A speed=13.6x    frame= 3400 fps=330 q=-0.0 size=N/A time=00:02:21.80 bitrate=N/A speed=13.8x    frame= 3611 fps=334 q=-0.0 size=N/A time=00:02:30.60 bitrate=N/A speed=13.9x    frame= 3804 fps=336 q=-0.0 size=N/A time=00:02:38.65 bitrate=N/A speed=  14x    frame= 3954 fps=334 q=-0.0 size=N/A time=00:02:44.91 bitrate=N/A speed=13.9x    frame= 4153 fps=336 q=-0.0 size=N/A time=00:02:53.21 bitrate=N/A speed=  14x    frame= 4347 fps=337 q=-0.0 size=N/A time=00:03:01.30 bitrate=N/A speed=14.1x    frame= 4522 fps=337 q=-0.0 size=N/A time=00:03:08.60 bitrate=N/A speed=14.1x    frame= 4724 fps=340 q=-0.0 size=N/A time=00:03:17.03 bitrate=N/A speed=14.2x    frame= 4930 fps=341 q=-0.0 size=N/A time=00:03:25.62 bitrate=N/A speed=14.2x    frame= 5067 fps=339 q=-0.0 size=N/A time=00:03:31.33 bitrate=N/A speed=14.1x    frame= 5229 fps=338 q=-0.0 size=N/A time=00:03:38.09 bitrate=N/A speed=14.1x    frame= 5413 fps=339 q=-0.0 size=N/A time=00:03:45.76 bitrate=N/A speed=14.1x    frame= 5580 fps=338 q=-0.0 size=N/A time=00:03:52.73 bitrate=N/A speed=14.1x    frame= 5733 fps=337 q=-0.0 size=N/A time=00:03:59.11 bitrate=N/A speed=  14x    frame= 5896 fps=336 q=-0.0 size=N/A time=00:04:05.91 bitrate=N/A speed=  14x    frame= 6073 fps=337 q=-0.0 size=N/A time=00:04:13.29 bitrate=N/A speed=  14x    frame= 6254 fps=337 q=-0.0 size=N/A time=00:04:20.84 bitrate=N/A speed=14.1x    frame= 6441 fps=338 q=-0.0 size=N/A time=00:04:28.64 bitrate=N/A speed=14.1x    frame= 6639 fps=339 q=-0.0 size=N/A time=00:04:36.90 bitrate=N/A speed=14.1x    frame= 6771 fps=337 q=-0.0 size=N/A time=00:04:42.40 bitrate=N/A speed=  14x    frame= 6956 fps=337 q=-0.0 size=N/A time=00:04:50.12 bitrate=N/A speed=14.1x    frame= 7119 fps=336 q=-0.0 size=N/A time=00:04:56.92 bitrate=N/A speed=  14x    frame= 7320 fps=338 q=-0.0 size=N/A time=00:05:05.30 bitrate=N/A speed=14.1x    frame= 7535 fps=340 q=-0.0 size=N/A time=00:05:14.27 bitrate=N/A speed=14.2x    frame= 7759 fps=342 q=-0.0 size=N/A time=00:05:23.61 bitrate=N/A speed=14.3x    frame= 7985 fps=344 q=-0.0 size=N/A time=00:05:33.04 bitrate=N/A speed=14.3x    frame= 8195 fps=345 q=-0.0 size=N/A time=00:05:41.79 bitrate=N/A speed=14.4x    frame= 8372 fps=345 q=-0.0 size=N/A time=00:05:49.18 bitrate=N/A speed=14.4x    frame= 8595 fps=347 q=-0.0 size=N/A time=00:05:58.48 bitrate=N/A speed=14.5x    frame= 8826 fps=349 q=-0.0 size=N/A time=00:06:08.11 bitrate=N/A speed=14.6x    frame= 9056 fps=351 q=-0.0 size=N/A time=00:06:17.71 bitrate=N/A speed=14.6x    frame= 9267 fps=352 q=-0.0 size=N/A time=00:06:26.51 bitrate=N/A speed=14.7x    frame= 9503 fps=354 q=-0.0 size=N/A time=00:06:36.35 bitrate=N/A speed=14.8x    frame= 9731 fps=356 q=-0.0 size=N/A time=00:06:45.86 bitrate=N/A speed=14.8x    frame= 9959 fps=357 q=-0.0 size=N/A time=00:06:55.37 bitrate=N/A speed=14.9x    frame=10169 fps=358 q=-0.0 size=N/A time=00:07:04.13 bitrate=N/A speed=14.9x    frame=10371 fps=359 q=-0.0 size=N/A time=00:07:12.55 bitrate=N/A speed=  15x    frame=10589 fps=360 q=-0.0 size=N/A time=00:07:21.64 bitrate=N/A speed=  15x    frame=10766 fps=360 q=-0.0 size=N/A time=00:07:29.03 bitrate=N/A speed=  15x    frame=10966 fps=360 q=-0.0 size=N/A time=00:07:37.37 bitrate=N/A speed=  15x    frame=11191 fps=362 q=-0.0 size=N/A time=00:07:46.75 bitrate=N/A speed=15.1x    frame=11398 fps=362 q=-0.0 size=N/A time=00:07:55.39 bitrate=N/A speed=15.1x    frame=11615 fps=363 q=-0.0 size=N/A time=00:08:04.44 bitrate=N/A speed=15.1x    frame=11824 fps=364 q=-0.0 size=N/A time=00:08:13.15 bitrate=N/A speed=15.2x    frame=12040 fps=365 q=-0.0 size=N/A time=00:08:22.16 bitrate=N/A speed=15.2x    frame=12235 fps=365 q=-0.0 size=N/A time=00:08:30.30 bitrate=N/A speed=15.2x    frame=12436 fps=365 q=-0.0 size=N/A time=00:08:38.68 bitrate=N/A speed=15.2x    frame=12656 fps=366 q=-0.0 size=N/A time=00:08:47.86 bitrate=N/A speed=15.3x    frame=12847 fps=366 q=-0.0 size=N/A time=00:08:55.82 bitrate=N/A speed=15.3x    frame=13034 fps=366 q=-0.0 size=N/A time=00:09:03.62 bitrate=N/A speed=15.3x    frame=13253 fps=367 q=-0.0 size=N/A time=00:09:12.76 bitrate=N/A speed=15.3x    frame=13454 fps=367 q=-0.0 size=N/A time=00:09:21.14 bitrate=N/A speed=15.3x    frame=13616 fps=366 q=-0.0 size=N/A time=00:09:27.90 bitrate=N/A speed=15.3x    frame=13809 fps=367 q=-0.0 size=N/A time=00:09:35.95 bitrate=N/A speed=15.3x    frame=14006 fps=367 q=-0.0 size=N/A time=00:09:44.16 bitrate=N/A speed=15.3x    frame=14159 fps=366 q=-0.0 size=N/A time=00:09:50.54 bitrate=N/A speed=15.3x    frame=14319 fps=365 q=-0.0 size=N/A time=00:09:57.22 bitrate=N/A speed=15.2x    frame=14516 fps=365 q=-0.0 size=N/A time=00:10:05.43 bitrate=N/A speed=15.2x    frame=14708 fps=365 q=-0.0 size=N/A time=00:10:13.44 bitrate=N/A speed=15.2x    frame=14905 fps=366 q=-0.0 size=N/A time=00:10:21.66 bitrate=N/A speed=15.3x    frame=15079 fps=365 q=-0.0 size=N/A time=00:10:28.91 bitrate=N/A speed=15.2x    frame=15244 fps=365 q=-0.0 size=N/A time=00:10:35.80 bitrate=N/A speed=15.2x    frame=15444 fps=365 q=-0.0 size=N/A time=00:10:44.14 bitrate=N/A speed=15.2x    frame=15658 fps=366 q=-0.0 size=N/A time=00:10:53.06 bitrate=N/A speed=15.2x    frame=15873 fps=366 q=-0.0 size=N/A time=00:11:02.03 bitrate=N/A speed=15.3x    frame=16095 fps=367 q=-0.0 size=N/A time=00:11:11.29 bitrate=N/A speed=15.3x    frame=16302 fps=367 q=-0.0 size=N/A time=00:11:19.92 bitrate=N/A speed=15.3x    frame=16487 fps=367 q=-0.0 size=N/A time=00:11:27.64 bitrate=N/A speed=15.3x    frame=16682 fps=367 q=-0.0 size=N/A time=00:11:35.77 bitrate=N/A speed=15.3x    frame=16906 fps=368 q=-0.0 size=N/A time=00:11:45.12 bitrate=N/A speed=15.4x    frame=17106 fps=368 q=-0.0 size=N/A time=00:11:53.46 bitrate=N/A speed=15.4x    frame=17300 fps=369 q=-0.0 size=N/A time=00:12:01.55 bitrate=N/A speed=15.4x    frame=17518 fps=369 q=-0.0 size=N/A time=00:12:10.64 bitrate=N/A speed=15.4x    frame=17706 fps=369 q=-0.0 size=N/A time=00:12:18.48 bitrate=N/A speed=15.4x    frame=17916 fps=369 q=-0.0 size=N/A time=00:12:27.24 bitrate=N/A speed=15.4x    frame=18130 fps=370 q=-0.0 size=N/A time=00:12:36.17 bitrate=N/A speed=15.4x    frame=18328 fps=370 q=-0.0 size=N/A time=00:12:44.43 bitrate=N/A speed=15.4x    frame=18533 fps=370 q=-0.0 size=N/A time=00:12:52.98 bitrate=N/A speed=15.4x    frame=18747 fps=371 q=-0.0 size=N/A time=00:13:01.90 bitrate=N/A speed=15.5x    frame=18977 fps=371 q=-0.0 size=N/A time=00:13:11.49 bitrate=N/A speed=15.5x    frame=19224 fps=372 q=-0.0 size=N/A time=00:13:21.80 bitrate=N/A speed=15.5x    frame=19436 fps=373 q=-0.0 size=N/A time=00:13:30.64 bitrate=N/A speed=15.6x    frame=19653 fps=373 q=-0.0 size=N/A time=00:13:39.69 bitrate=N/A speed=15.6x    frame=19879 fps=374 q=-0.0 size=N/A time=00:13:49.11 bitrate=N/A speed=15.6x    frame=20089 fps=374 q=-0.0 size=N/A time=00:13:57.87 bitrate=N/A speed=15.6x    frame=20276 fps=374 q=-0.0 size=N/A time=00:14:05.67 bitrate=N/A speed=15.6x    frame=20490 fps=374 q=-0.0 size=N/A time=00:14:14.60 bitrate=N/A speed=15.6x    frame=20715 fps=375 q=-0.0 size=N/A time=00:14:23.98 bitrate=N/A speed=15.6x    frame=20925 fps=375 q=-0.0 size=N/A time=00:14:32.74 bitrate=N/A speed=15.7x    frame=21138 fps=376 q=-0.0 size=N/A time=00:14:41.63 bitrate=N/A speed=15.7x    frame=21351 fps=376 q=-0.0 size=N/A time=00:14:50.51 bitrate=N/A speed=15.7x    frame=21548 fps=376 q=-0.0 size=N/A time=00:14:58.73 bitrate=N/A speed=15.7x    frame=21742 fps=376 q=-0.0 size=N/A time=00:15:06.82 bitrate=N/A speed=15.7x    frame=21904 fps=375 q=-0.0 size=N/A time=00:15:13.57 bitrate=N/A speed=15.7x    frame=22080 fps=375 q=-0.0 size=N/A time=00:15:20.92 bitrate=N/A speed=15.6x    frame=22252 fps=375 q=-0.0 size=N/A time=00:15:28.09 bitrate=N/A speed=15.6x    frame=22418 fps=374 q=-0.0 size=N/A time=00:15:35.01 bitrate=N/A speed=15.6x    frame=22604 fps=374 q=-0.0 size=N/A time=00:15:42.77 bitrate=N/A speed=15.6x    frame=22811 fps=374 q=-0.0 size=N/A time=00:15:51.40 bitrate=N/A speed=15.6x    frame=23015 fps=375 q=-0.0 size=N/A time=00:15:59.91 bitrate=N/A speed=15.6x    frame=23222 fps=375 q=-0.0 size=N/A time=00:16:08.55 bitrate=N/A speed=15.6x    frame=23426 fps=375 q=-0.0 size=N/A time=00:16:17.05 bitrate=N/A speed=15.6x    frame=23621 fps=375 q=-0.0 size=N/A time=00:16:25.19 bitrate=N/A speed=15.6x    frame=23781 fps=375 q=-0.0 size=N/A time=00:16:31.86 bitrate=N/A speed=15.6x    frame=23928 fps=374 q=-0.0 size=N/A time=00:16:37.99 bitrate=N/A speed=15.6x    frame=24056 fps=373 q=-0.0 size=N/A time=00:16:43.33 bitrate=N/A speed=15.5x    frame=24195 fps=372 q=-0.0 size=N/A time=00:16:49.13 bitrate=N/A speed=15.5x    frame=24374 fps=372 q=-0.0 size=N/A time=00:16:56.59 bitrate=N/A speed=15.5x    frame=24596 fps=372 q=-0.0 size=N/A time=00:17:05.85 bitrate=N/A speed=15.5x    frame=24809 fps=373 q=-0.0 size=N/A time=00:17:14.74 bitrate=N/A speed=15.5x    frame=24973 fps=372 q=-0.0 size=N/A time=00:17:21.58 bitrate=N/A speed=15.5x    frame=25189 fps=373 q=-0.0 size=N/A time=00:17:30.59 bitrate=N/A speed=15.5x    frame=25390 fps=373 q=-0.0 size=N/A time=00:17:38.97 bitrate=N/A speed=15.5x    frame=25596 fps=373 q=-0.0 size=N/A time=00:17:47.56 bitrate=N/A speed=15.5x    frame=25800 fps=373 q=-0.0 size=N/A time=00:17:56.07 bitrate=N/A speed=15.6x    frame=25999 fps=373 q=-0.0 size=N/A time=00:18:04.37 bitrate=N/A speed=15.6x    frame=26207 fps=373 q=-0.0 size=N/A time=00:18:13.05 bitrate=N/A speed=15.6x    frame=26416 fps=374 q=-0.0 size=N/A time=00:18:21.76 bitrate=N/A speed=15.6x    frame=26612 fps=374 q=-0.0 size=N/A time=00:18:29.94 bitrate=N/A speed=15.6x    frame=26810 fps=374 q=-0.0 size=N/A time=00:18:38.20 bitrate=N/A speed=15.6x    frame=27007 fps=374 q=-0.0 size=N/A time=00:18:46.41 bitrate=N/A speed=15.6x    frame=27218 fps=374 q=-0.0 size=N/A time=00:18:55.21 bitrate=N/A speed=15.6x    frame=27398 fps=374 q=-0.0 size=N/A time=00:19:02.72 bitrate=N/A speed=15.6x    frame=27587 fps=374 q=-0.0 size=N/A time=00:19:10.60 bitrate=N/A speed=15.6x    frame=27783 fps=374 q=-0.0 size=N/A time=00:19:18.78 bitrate=N/A speed=15.6x    frame=27982 fps=374 q=-0.0 size=N/A time=00:19:27.08 bitrate=N/A speed=15.6x    frame=28168 fps=374 q=-0.0 size=N/A time=00:19:34.84 bitrate=N/A speed=15.6x    frame=28345 fps=373 q=-0.0 size=N/A time=00:19:42.22 bitrate=N/A speed=15.6x    frame=28512 fps=373 q=-0.0 size=N/A time=00:19:49.18 bitrate=N/A speed=15.6x    frame=28685 fps=373 q=-0.0 size=N/A time=00:19:56.40 bitrate=N/A speed=15.5x    frame=28839 fps=372 q=-0.0 size=N/A time=00:20:02.82 bitrate=N/A speed=15.5x    frame=29016 fps=372 q=-0.0 size=N/A time=00:20:10.20 bitrate=N/A speed=15.5x    frame=29165 fps=372 q=-0.0 size=N/A time=00:20:16.42 bitrate=N/A speed=15.5x    frame=29327 fps=371 q=-0.0 size=N/A time=00:20:23.18 bitrate=N/A speed=15.5x    frame=29485 fps=371 q=-0.0 size=N/A time=00:20:29.77 bitrate=N/A speed=15.5x    frame=29644 fps=370 q=-0.0 size=N/A time=00:20:36.40 bitrate=N/A speed=15.4x    frame=29783 fps=370 q=-0.0 size=N/A time=00:20:42.19 bitrate=N/A speed=15.4x    frame=29920 fps=369 q=-0.0 size=N/A time=00:20:47.91 bitrate=N/A speed=15.4x    frame=30077 fps=369 q=-0.0 size=N/A time=00:20:54.46 bitrate=N/A speed=15.4x    frame=30225 fps=368 q=-0.0 size=N/A time=00:21:00.63 bitrate=N/A speed=15.4x    frame=30388 fps=368 q=-0.0 size=N/A time=00:21:07.43 bitrate=N/A speed=15.3x    frame=30552 fps=368 q=-0.0 size=N/A time=00:21:14.27 bitrate=N/A speed=15.3x    [Parsed_psnr_14 @ 00000158eafd2780] PSNR y:46.207551 u:48.810362 v:49.229153 average:46.957968 min:29.818706 max:73.484557
[out#0/null @ 00000158e99de380] video:13178KiB audio:239848KiB subtitle:0KiB other streams:0KiB global headers:0KiB muxing overhead: unknown
frame=30669 fps=368 q=-0.0 Lsize=N/A time=00:21:19.15 bitrate=N/A speed=15.3x    
